<?xml version="1.0" encoding="UTF-8"?>
<svg width="1200pt" height="1200pt" version="1.1" viewBox="0 0 1200 1200" xmlns="http://www.w3.org/2000/svg">
 <g>
  <path d="m715.77 495c13.148-7.0117 28.93-7.0117 42.078 0l47.227 25.191c30.684 16.363 67.504 16.363 98.184 0l47.23-25.191c13.152-7.0117 28.93-7.0117 42.082 0l82.293 43.891c14.527 7.75 32.582 2.2539 40.324-12.27 7.7461-14.527 2.25-32.582-12.273-40.328l-82.297-43.891c-30.68-16.363-67.5-16.363-98.18 0l-47.23 25.188c-13.148 7.0156-28.93 7.0156-42.078 0l-47.23-25.188c-30.68-16.363-67.5-16.363-98.184 0l-47.23 25.188c-13.145 7.0156-28.926 7.0156-42.074 0l-47.23-25.188c-30.688-16.363-67.504-16.363-98.184 0l-47.23 25.188c-13.148 7.0156-28.93 7.0156-42.078 0l-47.23-25.188c-30.684-16.363-67.5-16.363-98.184 0l-82.297 43.891c-14.523 7.7461-20.02 25.801-12.27 40.328 7.7461 14.523 25.801 20.02 40.324 12.27l82.293-43.891c13.152-7.0117 28.93-7.0117 42.082 0l47.227 25.191c30.684 16.363 67.504 16.363 98.184 0l47.23-25.191c13.148-7.0117 28.926-7.0117 42.078 0l47.23 25.191c30.684 16.363 67.504 16.363 98.184 0z"/>
  <path d="m715.77 682.78c13.148-7.0156 28.93-7.0156 42.078 0l47.227 25.188c30.684 16.359 67.504 16.359 98.184 0l47.23-25.188c13.152-7.0156 28.93-7.0156 42.082 0l82.293 43.891c14.527 7.7422 32.582 2.25 40.324-12.277 7.7461-14.523 2.25-32.574-12.273-40.324l-82.297-43.891c-30.68-16.363-67.5-16.363-98.18 0l-47.23 25.191c-13.148 7.0156-28.93 7.0156-42.078 0l-47.23-25.191c-30.68-16.363-67.5-16.363-98.184 0l-47.23 25.191c-13.145 7.0156-28.926 7.0156-42.074 0l-47.23-25.191c-30.688-16.363-67.504-16.363-98.184 0l-47.23 25.191c-13.148 7.0156-28.93 7.0156-42.078 0l-47.23-25.191c-30.684-16.363-67.5-16.363-98.184 0l-82.297 43.891c-14.523 7.75-20.02 25.801-12.27 40.324 7.7461 14.527 25.801 20.02 40.324 12.277l82.293-43.891c13.152-7.0156 28.93-7.0156 42.082 0l47.227 25.188c30.684 16.359 67.504 16.359 98.184 0l47.23-25.188c13.148-7.0156 28.926-7.0156 42.078 0l47.23 25.188c30.684 16.359 67.504 16.359 98.184 0z"/>
 </g>
</svg>
